<?xml version="1.0" standalone="no"?>
<!DOCTYPE svg PUBLIC "-//W3C//DTD SVG 20010904//EN"
 "http://www.w3.org/TR/2001/REC-SVG-20010904/DTD/svg10.dtd">
<svg version="1.0" xmlns="http://www.w3.org/2000/svg"
 width="1280.000000pt" height="670.000000pt" viewBox="0 0 1280.000000 670.000000"
 preserveAspectRatio="xMidYMid meet">
<metadata>
Created by potrace 1.16, written by Peter Selinger 2001-2019
</metadata>
<g transform="translate(0.000000,670.000000) scale(0.100000,-0.100000)"
fill="#000000" stroke="none">
<path d="M1054 6681 c-47 -29 -64 -59 -64 -114 0 -42 5 -54 33 -82 19 -19 47
-37 62 -41 43 -11 105 15 132 55 74 110 -51 250 -163 182z"/>
<path d="M2459 6281 c-23 -23 -29 -38 -29 -71 0 -35 6 -48 35 -77 32 -32 40
-35 76 -30 74 10 112 71 89 142 -15 46 -44 65 -98 65 -35 0 -49 -6 -73 -29z"/>
<path d="M3097 5856 c-54 -15 -112 -64 -133 -113 -8 -18 -14 -61 -14 -96 0
-54 5 -70 30 -108 75 -113 229 -130 324 -36 102 102 77 277 -47 335 -59 28
-104 33 -160 18z"/>
<path d="M2165 5705 c-75 -74 30 -192 109 -122 15 12 29 36 32 54 5 27 1 37
-24 63 -39 38 -83 40 -117 5z"/>
<path d="M641 5609 c-41 -16 -61 -48 -61 -96 0 -91 99 -137 168 -78 39 32 48
72 28 119 -11 26 -26 41 -50 51 -40 17 -51 18 -85 4z"/>
<path d="M3217 5200 c-95 -24 -199 -107 -245 -195 -25 -46 -26 -57 -22 -150
12 -286 0 -380 -65 -491 -74 -126 -268 -205 -427 -175 -94 19 -165 62 -316
193 -217 188 -340 237 -512 204 -162 -30 -294 -127 -364 -267 -44 -88 -59
-163 -54 -264 8 -137 45 -214 166 -350 81 -91 118 -155 143 -251 16 -61 19
-96 15 -154 -11 -139 -47 -222 -130 -298 -69 -62 -130 -92 -319 -154 -181 -59
-241 -87 -297 -141 -131 -128 -131 -349 2 -493 44 -48 146 -104 189 -104 30 0
30 0 49 -125 39 -253 157 -573 301 -812 443 -735 1217 -1174 2068 -1173 516 1
1002 162 1422 471 150 110 381 339 492 487 316 422 477 910 477 1445 0 370
-75 700 -234 1032 -328 686 -981 1185 -1726 1320 -143 26 -130 18 -130 81 0
145 -93 286 -228 347 -53 23 -191 33 -255 17z m471 -1792 c-28 -51 -73 -135
-100 -185 l-50 -93 -491 0 -492 0 -51 -24 c-127 -59 -193 -230 -137 -356 29
-66 67 -106 131 -137 l57 -28 330 -6 c182 -4 348 -11 370 -17 59 -16 197 -89
243 -128 173 -147 271 -422 222 -624 -29 -122 -111 -261 -207 -351 -144 -135
-274 -169 -645 -169 l-226 0 5 114 c6 120 0 152 -40 208 -11 15 -17 34 -14 42
6 14 41 16 282 16 272 0 276 0 323 24 104 52 156 134 155 241 0 105 -49 188
-142 243 l-46 27 -335 6 c-367 7 -398 11 -515 72 -80 41 -209 172 -257 259
-63 117 -80 179 -81 303 -1 316 162 531 468 616 44 12 107 25 140 29 33 4 306
8 607 9 l546 1 -50 -92z m1152 82 c0 -9 -24 -56 -132 -257 l-49 -93 -465 0
c-255 0 -464 2 -464 6 0 3 41 84 91 180 l91 174 464 0 c290 0 464 -4 464 -10z
m-350 -924 c0 -10 -162 -328 -175 -344 -2 -3 -318 -4 -451 -2 -7 0 -14 10 -18
23 -9 38 -102 179 -165 251 -34 38 -61 73 -61 78 0 4 196 8 435 8 365 0 435
-2 435 -14z m-2054 -937 c36 -34 58 -119 51 -196 -12 -124 -32 -134 -268 -133
-93 1 -180 5 -193 8 l-24 7 53 89 c30 49 71 127 92 174 l37 85 114 -6 c101 -5
117 -8 138 -28z m2384 21 c0 -6 -39 -84 -86 -175 l-87 -165 -508 0 c-280 0
-509 2 -509 4 0 1 11 15 25 30 40 44 139 176 184 249 l43 67 469 0 c310 0 469
-3 469 -10z"/>
<path d="M1058 5026 c-134 -59 -155 -245 -40 -333 30 -22 49 -28 104 -31 81
-5 133 19 175 82 48 71 34 184 -29 243 -52 49 -148 67 -210 39z"/>
<path d="M2434 4947 c-167 -63 -226 -260 -121 -399 50 -66 116 -98 202 -98 86
0 136 21 188 80 52 57 67 97 67 177 0 55 -6 78 -28 118 -60 109 -198 163 -308
122z"/>
<path d="M273 4821 c-60 -38 -81 -119 -45 -174 30 -44 53 -56 111 -57 47 0 57
4 87 34 30 30 34 40 34 85 0 44 -5 56 -33 87 -42 46 -104 56 -154 25z"/>
<path d="M173 3961 c-43 -7 -57 -15 -110 -65 -99 -91 -73 -265 50 -336 189
-108 400 91 302 286 -43 86 -137 131 -242 115z"/>
<path d="M905 3597 c-155 -74 -194 -285 -77 -411 91 -97 268 -101 365 -8 70
66 98 198 60 283 -46 102 -115 150 -228 156 -59 3 -78 0 -120 -20z"/>
<path d="M8735 3430 c-86 -13 -130 -29 -191 -69 -125 -82 -184 -173 -203 -314
-6 -45 -11 -258 -11 -503 l0 -424 80 0 80 0 1 293 c0 160 0 339 -1 397 -1 123
14 239 37 287 24 52 97 121 156 148 135 63 306 -3 371 -144 31 -68 30 -216 -2
-287 -29 -64 -83 -116 -144 -139 -75 -28 -195 -18 -282 23 -38 18 -70 32 -72
32 -2 0 -4 -38 -4 -85 0 -99 1 -100 118 -135 60 -18 90 -21 165 -18 125 7 190
33 271 109 205 191 209 512 10 715 -68 69 -134 100 -232 110 -31 3 -66 7 -77
8 -11 2 -42 0 -70 -4z"/>
<path d="M9715 3430 c-62 -9 -101 -28 -140 -70 l-30 -32 -5 39 -5 38 -80 0
-80 0 0 -445 0 -445 80 0 80 0 5 280 5 280 30 58 c45 89 92 123 190 136 l50 6
0 79 c0 77 -1 79 -25 81 -14 2 -48 -1 -75 -5z"/>
<path d="M11320 3433 c-78 -10 -140 -28 -176 -48 -53 -31 -116 -100 -151 -167
l-28 -53 -3 -327 -3 -328 80 0 81 0 0 278 c0 152 5 293 10 312 5 20 23 57 40
83 38 61 91 87 175 87 81 0 130 -28 164 -95 26 -49 26 -51 31 -355 l5 -305 88
-3 87 -3 0 330 c0 362 -2 375 -62 453 -68 87 -233 156 -338 141z"/>
<path d="M12305 3433 c-177 -17 -323 -111 -386 -247 -92 -200 -29 -487 133
-603 126 -90 363 -109 503 -41 98 48 199 183 231 308 22 88 15 232 -17 314
-62 161 -280 287 -464 269z m165 -187 c48 -25 98 -73 123 -121 19 -34 22 -56
22 -155 0 -95 -4 -123 -21 -160 -43 -91 -120 -139 -239 -147 -39 -3 -89 0
-113 7 -61 16 -123 77 -158 153 -24 53 -28 75 -28 152 -1 78 3 97 26 145 33
67 80 114 133 135 55 21 207 15 255 -9z"/>
<path d="M10220 3410 c-212 -37 -350 -214 -350 -449 0 -196 90 -350 250 -425
62 -30 71 -31 191 -31 120 0 128 1 185 30 l59 31 3 102 c1 56 -1 102 -6 102
-4 0 -21 -14 -38 -31 -95 -100 -255 -104 -381 -10 -123 92 -139 303 -33 424
75 85 183 119 310 97 87 -15 143 -53 179 -125 26 -49 26 -52 29 -332 l4 -283
84 0 84 0 0 300 c0 279 -1 303 -21 355 -26 69 -108 160 -178 198 -90 49 -245
69 -371 47z"/>
<path d="M6755 3400 c-183 -27 -245 -83 -245 -224 0 -100 40 -166 133 -220 23
-13 105 -43 181 -66 77 -23 157 -50 179 -61 72 -37 81 -125 15 -148 -19 -7
-126 -11 -269 -11 l-239 0 0 -81 0 -80 278 3 277 3 50 27 c63 33 90 62 110
117 33 95 10 206 -56 265 -55 50 -164 103 -275 132 -111 30 -174 55 -192 77
-8 9 -12 33 -10 54 5 62 26 67 286 71 l222 4 0 74 0 74 -197 -1 c-109 -1 -221
-5 -248 -9z"/>
<path d="M7390 3103 c0 -323 5 -365 48 -448 28 -56 77 -99 147 -132 51 -24 75
-28 165 -31 89 -3 114 0 164 19 107 40 191 147 216 274 7 39 10 159 8 340 l-3
280 -80 0 -80 0 -5 -300 c-6 -330 -7 -341 -73 -407 -39 -39 -65 -48 -136 -48
-74 0 -136 31 -176 88 l-30 44 -3 314 -3 314 -80 0 -79 0 0 -307z"/>
<path d="M12195 2107 c-174 -46 -265 -187 -220 -342 30 -104 123 -178 275
-219 187 -51 234 -69 262 -96 35 -35 36 -74 5 -120 -31 -47 -77 -71 -145 -77
-117 -11 -208 44 -234 141 l-13 48 -90 -7 c-49 -4 -94 -10 -99 -12 -14 -9 0
-77 29 -142 34 -76 103 -141 183 -173 50 -20 75 -22 197 -22 123 0 147 2 200
23 77 30 155 107 178 176 21 61 22 158 1 217 -36 107 -121 163 -330 218 -202
52 -253 88 -228 158 16 45 68 67 159 67 104 0 140 -18 168 -86 l21 -49 98 0
98 0 0 38 c0 55 -52 154 -101 193 -66 52 -130 71 -254 75 -70 2 -128 -1 -160
-9z"/>
<path d="M6440 1600 l0 -500 380 0 380 0 0 85 0 85 -280 0 -280 0 0 135 0 135
253 0 253 0 -1 83 -2 82 -251 3 -252 2 0 110 0 110 270 0 270 0 0 85 0 85
-370 0 -370 0 0 -500z"/>
<path d="M7423 1933 c221 -324 308 -448 316 -451 8 -3 76 93 353 496 43 63 78
116 78 118 0 2 -53 4 -117 4 l-118 -1 -93 -134 c-52 -74 -97 -135 -100 -135
-4 0 -50 61 -102 135 l-95 135 -118 0 -118 0 114 -167z"/>
<path d="M8310 1600 l0 -500 105 0 105 0 0 218 0 217 195 0 195 0 0 -217 0
-218 105 0 105 0 0 500 0 500 -105 0 -105 0 0 -195 0 -195 -195 0 -195 0 0
195 0 195 -105 0 -105 0 0 -500z"/>
<path d="M9720 1601 l0 -501 285 0 c174 0 305 4 337 11 89 19 145 66 194 159
27 53 26 182 -3 236 -25 47 -73 91 -122 111 l-33 14 31 23 c151 111 131 331
-37 413 l-57 28 -297 3 -298 3 0 -500z m534 318 c62 -32 76 -116 29 -169 -35
-38 -110 -52 -258 -48 l-100 3 -3 104 c-1 58 0 111 3 119 5 13 29 14 156 8 83
-4 161 -11 173 -17z m21 -403 c50 -21 77 -69 72 -129 -8 -98 -52 -117 -267
-117 l-160 0 0 130 0 130 160 0 c117 0 170 -4 195 -14z"/>
<path d="M11050 2015 l0 -85 150 0 150 0 0 -415 0 -415 100 0 100 0 0 415 0
415 150 0 150 0 0 85 0 85 -400 0 -400 0 0 -85z"/>
<path d="M9320 1485 l0 -385 100 0 100 0 0 384 0 384 -37 -19 c-46 -24 -67
-24 -120 1 l-43 19 0 -384z"/>
<path d="M10720 1485 l0 -385 105 0 105 0 0 385 c0 212 -1 385 -3 385 -1 0
-20 -9 -42 -20 -22 -11 -49 -20 -60 -20 -11 0 -38 9 -60 20 -22 11 -41 20 -42
20 -2 0 -3 -173 -3 -385z"/>
</g>
</svg>
